<?xml version="1.0" encoding="UTF-8" standalone="no"?>
<!-- Created with Inkscape (http://www.inkscape.org/) -->

<svg
   width="24"
   height="24"
   viewBox="0 0 6.3499998 6.35"
   version="1.1"
   id="svg1"
   xml:space="preserve"
   sodipodi:docname="icon.svg"
   inkscape:version="1.4.3 (0d15f75, 2025-12-25)"
   xmlns:inkscape="http://www.inkscape.org/namespaces/inkscape"
   xmlns:sodipodi="http://sodipodi.sourceforge.net/DTD/sodipodi-0.dtd"
   xmlns="http://www.w3.org/2000/svg"
   xmlns:svg="http://www.w3.org/2000/svg"><sodipodi:namedview
     id="namedview1"
     pagecolor="#ffffff"
     bordercolor="#000000"
     borderopacity="0.25"
     inkscape:showpageshadow="2"
     inkscape:pageopacity="0.0"
     inkscape:pagecheckerboard="0"
     inkscape:deskcolor="#d1d1d1"
     inkscape:document-units="mm"
     inkscape:zoom="22.627417"
     inkscape:cx="6.8059028"
     inkscape:cy="14.606174"
     inkscape:window-width="1920"
     inkscape:window-height="1009"
     inkscape:window-x="1912"
     inkscape:window-y="-8"
     inkscape:window-maximized="1"
     inkscape:current-layer="layer1" /><defs
     id="defs1"><clipPath
       id="clip-0"><path
         clip-rule="nonzero"
         d="M 56 202 L 64 202 L 64 212.582031 L 56 212.582031 Z M 56 202 "
         id="path1" /></clipPath><clipPath
       id="clip-1"><path
         clip-rule="nonzero"
         d="M 111 202 L 120 202 L 120 212.582031 L 111 212.582031 Z M 111 202 "
         id="path2" /></clipPath><clipPath
       id="clip-2"><path
         clip-rule="nonzero"
         d="M 183 202 L 191 202 L 191 212.582031 L 183 212.582031 Z M 183 202 "
         id="path3" /></clipPath><clipPath
       id="clip-3"><path
         clip-rule="nonzero"
         d="M 220 202 L 227.445312 202 L 227.445312 212.582031 L 220 212.582031 Z M 220 202 "
         id="path4" /></clipPath></defs><g
     inkscape:label="Layer 1"
     inkscape:groupmode="layer"
     id="layer1"><path
       id="path39"
       style="display:inline"
       d="M 81.817206 0.011405799 C 62.571113 1.6910933 45.354524 13.210298 36.479524 30.538423 C 32.381867 38.534516 30.312854 47.189295 30.312854 56.243982 C 30.312854 69.122889 34.534136 81.246352 42.526324 91.312758 L 43.405375 92.378274 C 46.932719 96.698587 50.2156 100.55118 53.367944 104.05899 C 53.414814 104.10979 53.454254 104.16803 53.501133 104.21881 L 66.540378 73.385461 C 62.46616 68.596398 60.240518 62.587732 60.240518 56.243982 C 60.240518 52.493982 61.017351 48.846969 62.544695 45.429001 C 66.806414 35.882126 76.317127 29.725967 86.758533 29.725967 C 89.688221 29.725967 92.538869 30.194768 95.269338 31.124456 L 99.957606 21.201844 L 84.214615 14.209399 L 81.817206 0.011405799 z M 90.381286 0.35769831 L 92.152705 10.813068 L 110.39966 18.924304 L 103.31398 34.107899 C 107.88529 36.880579 111.46702 40.963271 113.6628 45.722017 C 116.28908 45.714971 119.29963 45.708698 122.71968 45.708698 C 133.11322 45.708698 139.70768 45.745211 143.25749 45.81525 C 143.26209 45.815341 143.27953 45.815159 143.28413 45.81525 L 144.8824 45.349087 C 144.8707 45.298307 144.85424 45.240042 144.84244 45.18926 C 139.4715 19.302542 117.04145 0.71707431 90.381286 0.35769831 z M 70.962267 79.791873 L 57.590049 110.8916 C 62.425987 115.99706 66.178471 119.43931 69.510502 122.50572 C 75.319096 127.84947 80.037477 132.17422 86.771852 142.01797 C 92.93488 133.01459 97.405493 128.62293 102.56812 123.85094 C 91.347418 109.36236 78.096901 91.972441 77.661695 90.939828 C 76.892417 89.114561 76.908479 86.67687 77.701652 84.946304 C 77.897699 84.518565 78.148245 84.087284 78.434194 83.681004 C 75.760133 82.798967 73.242325 81.491624 70.962267 79.791873 z "
       transform="matrix(0.0387992,0,0,0.0387992,-0.55393024,0.41865333)" /><path
       id="rect30"
       style="display:none;opacity:1;fill:#00b200;stroke:#ffffff;stroke-width:0.615;stroke-linecap:butt;stroke-linejoin:round;stroke-dasharray:none;paint-order:stroke fill markers"
       d="m 3.3486328,2.4970052 v 1.335319 H 2.7424683 L 4.2085286,5.738151 5.674589,3.8323242 H 5.0684245 v -1.335319 z" /><rect
       style="opacity:1;fill:#247e4b;fill-opacity:1;stroke:none;stroke-width:0.414999;stroke-linecap:butt;stroke-linejoin:round;stroke-dasharray:none;paint-order:stroke fill markers"
       id="rect31"
       width="1.672105"
       height="1.2511554"
       x="-4.501821"
       y="0.84189904" /><text
       xml:space="preserve"
       style="font-size:0.705556px;font-family:'Open Sans';-inkscape-font-specification:'Open Sans';text-align:start;writing-mode:lr-tb;direction:ltr;text-anchor:start;opacity:1;fill:#247e4b;fill-opacity:1;stroke:none;stroke-width:0.414999;stroke-linecap:butt;stroke-linejoin:round;stroke-dasharray:none;paint-order:stroke fill markers"
       x="-2.6080971"
       y="1.7071842"
       id="text31"><tspan
         sodipodi:role="line"
         id="tspan31"
         style="font-size:0.705556px;stroke-width:0.415"
         x="-1.8942729"
         y="1.7071842">akce</tspan></text><rect
       style="opacity:1;fill:#951e7a;fill-opacity:1;stroke:none;stroke-width:0.414999;stroke-linecap:butt;stroke-linejoin:round;stroke-dasharray:none;paint-order:stroke fill markers"
       id="rect32"
       width="1.672105"
       height="1.2511554"
       x="-4.501821"
       y="2.6939824" /><text
       xml:space="preserve"
       style="font-size:0.705556px;font-family:'Open Sans';-inkscape-font-specification:'Open Sans';text-align:start;writing-mode:lr-tb;direction:ltr;text-anchor:start;opacity:1;fill:#951e7a;fill-opacity:1;stroke:none;stroke-width:0.414999;stroke-linecap:butt;stroke-linejoin:round;stroke-dasharray:none;paint-order:stroke fill markers"
       x="-2.6360023"
       y="3.5261946"
       id="text32"><tspan
         sodipodi:role="line"
         id="tspan32"
         style="font-size:0.705556px;fill:#951e7a;fill-opacity:1;stroke-width:0.415"
         x="-2.6360023"
         y="3.5261946">lokality</tspan></text><path
       id="path32"
       style="opacity:1;fill:#00b200;stroke-width:0.615;paint-order:stroke fill markers;stroke:none;stroke-linecap:butt;stroke-linejoin:round;stroke-dasharray:none"
       d="M 3.3486328 2.4970052 L 3.3486328 3.8323242 L 2.7424683 3.8323242 L 4.2085286 5.738151 L 5.674589 3.8323242 L 5.0684245 3.8323242 L 5.0684245 2.4970052 L 3.3486328 2.4970052 z "
       inkscape:export-filename="path32.png"
       inkscape:export-xdpi="3000"
       inkscape:export-ydpi="3000" /></g></svg>
